<svg width="40" height="40" viewBox="0 0 40 40" fill="none" xmlns="http://www.w3.org/2000/svg">
<path d="M0.996856 0.996551C2.10334 -0.109934 3.89731 -0.109934 5.0038 0.996551L20.0003 15.9931L34.9969 0.996551C36.1033 -0.109934 37.8973 -0.109934 39.0038 0.996551C40.1103 2.10304 40.1103 3.897 39.0038 5.00349L24.0073 20L39.0038 34.9966C40.1103 36.103 40.1103 37.897 39.0038 39.0035C37.8973 40.11 36.1033 40.11 34.9969 39.0035L20.0003 24.007L5.0038 39.0035C3.89731 40.11 2.10334 40.11 0.996856 39.0035C-0.109629 37.897 -0.109629 36.103 0.996856 34.9966L15.9934 20L0.996856 5.00349C-0.109629 3.897 -0.109629 2.10304 0.996856 0.996551Z" fill="#FE9F00"/>
</svg>
