<svg width="23" height="23" viewBox="0 0 23 23" fill="none" xmlns="http://www.w3.org/2000/svg">
<path d="M4.3125 6.46876C4.3125 6.0718 4.6343 5.75001 5.03125 5.75001H13.6562C14.0532 5.75001 14.375 6.0718 14.375 6.46876C14.375 6.86571 14.0532 7.18751 13.6562 7.18751H5.03125C4.6343 7.18751 4.3125 6.86571 4.3125 6.46876Z" fill="#B9B8B8"/>
<path d="M4.3125 9.34376C4.3125 8.9468 4.6343 8.62501 5.03125 8.62501H13.6562C14.0532 8.62501 14.375 8.9468 14.375 9.34376C14.375 9.74071 14.0532 10.0625 13.6562 10.0625H5.03125C4.6343 10.0625 4.3125 9.74071 4.3125 9.34376Z" fill="#B9B8B8"/>
<path d="M4.3125 12.2188C4.3125 11.8218 4.6343 11.5 5.03125 11.5H13.6562C14.0532 11.5 14.375 11.8218 14.375 12.2188C14.375 12.6157 14.0532 12.9375 13.6562 12.9375H5.03125C4.6343 12.9375 4.3125 12.6157 4.3125 12.2188Z" fill="#B9B8B8"/>
<path d="M4.3125 15.0938C4.3125 14.6968 4.6343 14.375 5.03125 14.375H13.6562C14.0532 14.375 14.375 14.6968 14.375 15.0938C14.375 15.4907 14.0532 15.8125 13.6562 15.8125H5.03125C4.6343 15.8125 4.3125 15.4907 4.3125 15.0938Z" fill="#B9B8B8"/>
<path d="M4.3125 17.9688C4.3125 17.5718 4.6343 17.25 5.03125 17.25H13.6562C14.0532 17.25 14.375 17.5718 14.375 17.9688C14.375 18.3657 14.0532 18.6875 13.6562 18.6875H5.03125C4.6343 18.6875 4.3125 18.3657 4.3125 17.9688Z" fill="#B9B8B8"/>
<path d="M16.5312 5.75001C16.1343 5.75001 15.8125 6.0718 15.8125 6.46876C15.8125 6.86571 16.1343 7.18751 16.5312 7.18751H17.9688C18.3657 7.18751 18.6875 6.86571 18.6875 6.46876C18.6875 6.0718 18.3657 5.75001 17.9688 5.75001H16.5312Z" fill="#B9B8B8"/>
<path d="M16.5312 8.62501C16.1343 8.62501 15.8125 8.9468 15.8125 9.34376C15.8125 9.74071 16.1343 10.0625 16.5312 10.0625H17.9688C18.3657 10.0625 18.6875 9.74071 18.6875 9.34376C18.6875 8.9468 18.3657 8.62501 17.9688 8.62501H16.5312Z" fill="#B9B8B8"/>
<path d="M16.5312 11.5C16.1343 11.5 15.8125 11.8218 15.8125 12.2188C15.8125 12.6157 16.1343 12.9375 16.5312 12.9375H17.9688C18.3657 12.9375 18.6875 12.6157 18.6875 12.2188C18.6875 11.8218 18.3657 11.5 17.9688 11.5H16.5312Z" fill="#B9B8B8"/>
<path d="M16.5312 14.375C16.1343 14.375 15.8125 14.6968 15.8125 15.0938C15.8125 15.4907 16.1343 15.8125 16.5312 15.8125H17.9688C18.3657 15.8125 18.6875 15.4907 18.6875 15.0938C18.6875 14.6968 18.3657 14.375 17.9688 14.375H16.5312Z" fill="#B9B8B8"/>
<path d="M16.5312 17.25C16.1343 17.25 15.8125 17.5718 15.8125 17.9688C15.8125 18.3657 16.1343 18.6875 16.5312 18.6875H17.9688C18.3657 18.6875 18.6875 18.3657 18.6875 17.9688C18.6875 17.5718 18.3657 17.25 17.9688 17.25H16.5312Z" fill="#B9B8B8"/>
<path d="M3.38323 0.929276C3.21986 0.765908 2.98792 0.691031 2.75987 0.72804C2.53181 0.765048 2.33545 0.909428 2.23213 1.11607L1.51338 2.55357C1.46348 2.65338 1.4375 2.76343 1.4375 2.87501V21.5625H0.71875C0.321795 21.5625 0 21.8843 0 22.2813C0 22.6782 0.321795 23 0.71875 23H22.2812C22.6782 23 23 22.6782 23 22.2813C23 21.8843 22.6782 21.5625 22.2812 21.5625H21.5625V2.87501C21.5625 2.76343 21.5365 2.65338 21.4866 2.55357L20.7679 1.11607C20.6645 0.909428 20.4682 0.765048 20.2401 0.72804C20.0121 0.691031 19.7801 0.765908 19.6168 0.929276L18.6875 1.85854L17.7582 0.929276C17.4775 0.648586 17.0225 0.648586 16.7418 0.929276L15.8125 1.85854L14.8832 0.929276C14.6025 0.648586 14.1475 0.648586 13.8668 0.929276L12.9375 1.85854L12.0082 0.929276C11.7275 0.648586 11.2725 0.648586 10.9918 0.929276L10.0625 1.85854L9.13323 0.929276C8.85254 0.648586 8.39746 0.648586 8.11677 0.929276L7.1875 1.85854L6.25823 0.929276C5.97754 0.648586 5.52246 0.648586 5.24177 0.929276L4.3125 1.85854L3.38323 0.929276ZM3.0719 2.65088L3.80427 3.38324C4.08496 3.66393 4.54004 3.66393 4.82073 3.38324L5.75 2.45397L6.67927 3.38324C6.95996 3.66393 7.41504 3.66393 7.69573 3.38324L8.625 2.45397L9.55427 3.38324C9.83496 3.66393 10.29 3.66393 10.5707 3.38324L11.5 2.45397L12.4293 3.38324C12.71 3.66393 13.165 3.66393 13.4457 3.38324L14.375 2.45398L15.3043 3.38324C15.585 3.66393 16.04 3.66393 16.3207 3.38324L17.25 2.45398L18.1793 3.38324C18.46 3.66393 18.915 3.66393 19.1957 3.38324L19.9281 2.65088L20.125 3.04468V21.5625H2.875V3.04468L3.0719 2.65088Z" fill="#B9B8B8"/>
</svg>
