<svg width="23" height="23" viewBox="0 0 23 23" fill="none" xmlns="http://www.w3.org/2000/svg">
<path d="M12.2188 7.90625C12.2188 7.50929 11.897 7.1875 11.5 7.1875C11.103 7.1875 10.7812 7.50929 10.7812 7.90625V12.7384L8.72743 16.1615C8.5232 16.5018 8.63357 16.9433 8.97396 17.1476C9.31434 17.3518 9.75584 17.2414 9.96007 16.901L12.1163 13.3073C12.1833 13.1956 12.2188 13.0678 12.2188 12.9375V7.90625Z" fill="#B9B8B8"/>
<path d="M9.34375 0C8.94679 0 8.625 0.321795 8.625 0.71875C8.625 1.1157 8.94679 1.4375 9.34375 1.4375H10.0625V2.97698C5.18577 3.67481 1.4375 7.86812 1.4375 12.9375C1.4375 16.1827 2.97413 19.0685 5.35691 20.9078L4.49165 21.773C4.21096 22.0537 4.21096 22.5088 4.49165 22.7895C4.77234 23.0702 5.22743 23.0702 5.50812 22.7895L6.58034 21.7173C8.03537 22.5342 9.71417 23 11.5 23C13.2858 23 14.9646 22.5342 16.4197 21.7173L17.4919 22.7895C17.7726 23.0702 18.2277 23.0702 18.5083 22.7895C18.789 22.5088 18.789 22.0537 18.5083 21.773L17.6431 20.9078C20.0259 19.0685 21.5625 16.1827 21.5625 12.9375C21.5625 7.86812 17.8142 3.67481 12.9375 2.97698V1.4375H13.6562C14.0532 1.4375 14.375 1.1157 14.375 0.71875C14.375 0.321795 14.0532 0 13.6562 0H9.34375ZM10.8358 4.33766C11.0549 4.321 11.2764 4.3125 11.5 4.3125C11.7236 4.3125 11.9451 4.321 12.1642 4.33766C16.617 4.67639 20.125 8.39761 20.125 12.9375C20.125 15.9903 18.5395 18.6732 16.1437 20.2071C14.8036 21.065 13.211 21.5625 11.5 21.5625C9.78899 21.5625 8.19637 21.065 6.85629 20.2071C4.46046 18.6732 2.875 15.9903 2.875 12.9375C2.875 8.39761 6.38305 4.67639 10.8358 4.33766Z" fill="#B9B8B8"/>
<path d="M0 5.03125C0 6.11419 0.478999 7.08525 1.23669 7.74412C2.34298 5.56215 4.12465 3.78048 6.30662 2.67419C5.64775 1.9165 4.67669 1.4375 3.59375 1.4375C1.60898 1.4375 0 3.04648 0 5.03125Z" fill="#B9B8B8"/>
<path d="M19.4062 1.4375C18.3233 1.4375 17.3523 1.9165 16.6934 2.67419C18.8754 3.78048 20.657 5.56215 21.7633 7.74412C22.521 7.08525 23 6.11419 23 5.03125C23 3.04648 21.391 1.4375 19.4062 1.4375Z" fill="#B9B8B8"/>
</svg>
