<svg width="14" height="14" viewBox="0 0 14 14" fill="none" xmlns="http://www.w3.org/2000/svg">
<path d="M6.99988 0L8.45999 0.756258L10.0858 1.00266L10.8225 2.47271L11.9929 3.62766L11.7249 5.25L11.9929 6.87234L10.8225 8.02729L10.0858 9.49734L8.45999 9.74374L6.99988 10.5L5.53978 9.74374L3.91401 9.49734L3.17728 8.02729L2.00684 6.87234L2.27488 5.25L2.00684 3.62766L3.17728 2.47271L3.91401 1.00266L5.53978 0.756258L6.99988 0Z" fill="#FE9F00"/>
<path d="M3.49988 10.3196V14L6.99988 13.125L10.4999 14V10.3196L8.73403 10.5872L6.99987 11.4854L5.26571 10.5872L3.49988 10.3196Z" fill="#FE9F00"/>
</svg>
