<svg width="58" height="58" viewBox="0 0 58 58" fill="none" xmlns="http://www.w3.org/2000/svg">
<path d="M19.9375 19.9375C20.9385 19.9375 21.75 20.749 21.75 21.75V43.5C21.75 44.501 20.9385 45.3125 19.9375 45.3125C18.9365 45.3125 18.125 44.501 18.125 43.5V21.75C18.125 20.749 18.9365 19.9375 19.9375 19.9375Z" fill="white"/>
<path d="M29 19.9375C30.001 19.9375 30.8125 20.749 30.8125 21.75V43.5C30.8125 44.501 30.001 45.3125 29 45.3125C27.999 45.3125 27.1875 44.501 27.1875 43.5V21.75C27.1875 20.749 27.999 19.9375 29 19.9375Z" fill="white"/>
<path d="M39.875 21.75C39.875 20.749 39.0635 19.9375 38.0625 19.9375C37.0615 19.9375 36.25 20.749 36.25 21.75V43.5C36.25 44.501 37.0615 45.3125 38.0625 45.3125C39.0635 45.3125 39.875 44.501 39.875 43.5V21.75Z" fill="white"/>
<path fill-rule="evenodd" clip-rule="evenodd" d="M52.5625 10.875C52.5625 12.877 50.9395 14.5 48.9375 14.5H47.125V47.125C47.125 51.1291 43.8791 54.375 39.875 54.375H18.125C14.1209 54.375 10.875 51.1291 10.875 47.125V14.5H9.0625C7.06047 14.5 5.4375 12.877 5.4375 10.875V7.25C5.4375 5.24797 7.06047 3.625 9.0625 3.625H21.75C21.75 1.62297 23.373 0 25.375 0H32.625C34.627 0 36.25 1.62297 36.25 3.625H48.9375C50.9395 3.625 52.5625 5.24797 52.5625 7.25V10.875ZM14.9279 14.5L14.5 14.7139V47.125C14.5 49.127 16.123 50.75 18.125 50.75H39.875C41.877 50.75 43.5 49.127 43.5 47.125V14.7139L43.0721 14.5H14.9279ZM9.0625 10.875V7.25H48.9375V10.875H9.0625Z" fill="white"/>
</svg>
